<svg xmlns="http://www.w3.org/2000/svg" viewBox="0 0 190.38 185.71"><defs><style>.cls-1{fill:#fff;}</style></defs><title>Asset 12</title><g id="Layer_2" data-name="Layer 2"><g id="Layer_1-2" data-name="Layer 1"><path class="cls-1" d="M2.32.33A4.49,4.49,0,0,0,.86,1.48C.12,2.26.12,2.83,0,71.56S0,140.8.7,142a3.85,3.85,0,0,0,1.67,1.51c.57.21,34.1.37,93.06.37,85.28,0,92.17-.06,93.11-.63A3.77,3.77,0,0,0,190,141.8c.57-1.26.57-138.49,0-139.75A3.77,3.77,0,0,0,188.54.59C187.6,0,180.71,0,95.27,0,44.51.07,2.68.17,2.32.33Zm180,56.81v49.15L154.91,78.87,128.79,52.74a4.45,4.45,0,0,0-3.13-1.29h0a4.45,4.45,0,0,0-3.12,1.29l-28,28C78.35,96.94,65,110.1,64.83,110.1S58.09,103.73,50.31,96C36.63,82.26,36.05,81.79,34.75,81.79a5.32,5.32,0,0,0-2.2.42c-.41.21-6.16,5.75-12.69,12.22L8,106.34V8.06H182.38V57.14Zm-28.2,32.17,28.25,28.26v18.32H8v-18l13.26-13.27L34.49,91.35l14.1,14.1c9.6,9.61,14.41,14.15,15.14,14.36h0a3.84,3.84,0,0,0,3.43-.92c3.14-2.76,12.13-11.59,29.08-28.58,16.09-16.09,29.3-29.25,29.46-29.25S138.56,73.75,154.13,89.31Z"/><path class="cls-1" d="M57.57,18.45a27.27,27.27,0,0,0-21,20.16A21.46,21.46,0,0,0,36,46.13c.16,3.91.31,5.06,1.25,7.78a24.77,24.77,0,0,0,5.85,9.71,26.47,26.47,0,0,0,21.31,8.62,26.49,26.49,0,0,0,12.48-3.61A34.16,34.16,0,0,0,87,57.93,27.2,27.2,0,0,0,57.57,18.45Zm9.35,7.88A19.35,19.35,0,0,1,80,36.2a16.63,16.63,0,0,1,2.14,9.3,19.16,19.16,0,0,1-23,18.43A19.83,19.83,0,0,1,44.3,49.21,23.26,23.26,0,0,1,45,38.61,19.67,19.67,0,0,1,54.7,28,17,17,0,0,1,66.92,26.33Z"/><path class="cls-1" d="M21.46,176.73l-1.31-4H11.64l-1.32,4H4.18L12.42,153h7l8.2,23.77Zm-8.37-8.38H18.7l-2.81-8.44Z"/><path class="cls-1" d="M30.82,174.26a10.85,10.85,0,0,1,0-13.86,8,8,0,0,1,6.09-2.72,6.41,6.41,0,0,1,5.53,2.67v-8.61h5.77v25H42.44V174a6.54,6.54,0,0,1-5.61,3A7.91,7.91,0,0,1,30.82,174.26Zm10.37-3.51a4.59,4.59,0,0,0,1.25-3.44,4.54,4.54,0,0,0-1.25-3.43,4,4,0,0,0-5.74,0,5.34,5.34,0,0,0,0,6.87,4,4,0,0,0,5.74,0Z"/><path class="cls-1" d="M54.07,174.26a10.89,10.89,0,0,1,0-13.86,8,8,0,0,1,6.1-2.72,6.38,6.38,0,0,1,5.52,2.67v-8.61h5.77v25H65.69V174a6.54,6.54,0,0,1-5.61,3A7.91,7.91,0,0,1,54.07,174.26Zm10.37-3.51a4.59,4.59,0,0,0,1.25-3.44,4.54,4.54,0,0,0-1.25-3.43,4,4,0,0,0-5.74,0,5.34,5.34,0,0,0,0,6.87,4,4,0,0,0,5.74,0Z"/><path class="cls-1" d="M92.43,160.35A6.38,6.38,0,0,1,98,157.68,8,8,0,0,1,104,160.4a10.85,10.85,0,0,1,0,13.86,7.92,7.92,0,0,1-6,2.7,6.39,6.39,0,0,1-5.57-3v11.72H86.66V157.89h5.77Zm7,10.42a5.34,5.34,0,0,0,0-6.87,4,4,0,0,0-5.74,0,4.54,4.54,0,0,0-1.25,3.43,4.59,4.59,0,0,0,1.25,3.44,4,4,0,0,0,5.74,0Z"/><path class="cls-1" d="M115.7,151.74v8.91a6.16,6.16,0,0,1,5.71-3,6.84,6.84,0,0,1,5.25,2.16,8.3,8.3,0,0,1,2,5.88v11h-5.74V166.5a3.89,3.89,0,0,0-1-2.82,4,4,0,0,0-5.3,0,3.89,3.89,0,0,0-1,2.82v10.23h-5.77v-25Z"/><path class="cls-1" d="M134.65,174.3a9.15,9.15,0,0,1-2.86-7,9,9,0,0,1,2.84-7,10.7,10.7,0,0,1,14,0,9.05,9.05,0,0,1,2.82,7,9.26,9.26,0,0,1-2.81,7,9.74,9.74,0,0,1-7,2.66A9.93,9.93,0,0,1,134.65,174.3Zm9.8-3.48a4.9,4.9,0,0,0,1.15-3.51,4.78,4.78,0,0,0-1.18-3.5,3.86,3.86,0,0,0-5.59,0,4.86,4.86,0,0,0-1.16,3.5,4.79,4.79,0,0,0,1.2,3.51,3.8,3.8,0,0,0,2.82,1.21A3.64,3.64,0,0,0,144.45,170.82Z"/><path class="cls-1" d="M162.66,171.83h2.06v4.9h-2.94a7.67,7.67,0,0,1-4.91-1.4c-1.16-.94-1.74-2.54-1.74-4.82v-7.83h-1.76v-4.79h1.76v-4.6h5.77v4.6h3.79v4.79H160.9v7.83C160.9,171.39,161.49,171.83,162.66,171.83Z"/><path class="cls-1" d="M169.76,174.3a9.15,9.15,0,0,1-2.86-7,9,9,0,0,1,2.84-7,10.7,10.7,0,0,1,14,0,9.05,9.05,0,0,1,2.82,7,9.29,9.29,0,0,1-2.8,7,9.78,9.78,0,0,1-7,2.66A9.93,9.93,0,0,1,169.76,174.3Zm9.81-3.48a4.94,4.94,0,0,0,1.14-3.51,4.78,4.78,0,0,0-1.18-3.5,3.86,3.86,0,0,0-5.59,0,4.86,4.86,0,0,0-1.16,3.5,4.79,4.79,0,0,0,1.2,3.51A3.83,3.83,0,0,0,176.8,172,3.68,3.68,0,0,0,179.57,170.82Z"/></g></g></svg>